<svg xmlns="http://www.w3.org/2000/svg" xmlns:xlink="http://www.w3.org/1999/xlink" width="1080" zoomAndPan="magnify" viewBox="0 0 810 809.999993" height="1080" preserveAspectRatio="xMidYMid meet" version="1.0"><defs><clipPath id="5fcdbc7c92"><path d="M 50 451 L 462 451 L 462 789.386719 L 50 789.386719 Z M 50 451 " clip-rule="nonzero"/></clipPath><clipPath id="56e27d1c07"><path d="M 345 141 L 809.988281 141 L 809.988281 750 L 345 750 Z M 345 141 " clip-rule="nonzero"/></clipPath></defs><g clip-path="url(#5fcdbc7c92)"><path fill="#e20714" d="M 348.257812 451.941406 L 461.53125 451.941406 L 461.53125 785.28125 C 461.53125 785.28125 189.675781 840.300781 50.507812 584.628906 L 179.964844 584.628906 C 179.964844 584.628906 238.21875 668.773438 351.496094 678.484375 L 351.496094 451.941406 Z M 348.257812 451.941406 " fill-opacity="1" fill-rule="nonzero"/></g><path fill="#e20714" d="M 79.636719 189.796875 L 228.511719 189.796875 C 228.511719 189.796875 419.457031 44.160156 603.933594 218.921875 L 53.746094 218.921875 C 53.746094 218.921875 -43.347656 364.558594 31.089844 555.503906 L 154.074219 555.503906 C 154.074219 555.503906 79.636719 426.050781 131.417969 328.957031 L 788.410156 328.957031 C 788.410156 328.957031 739.863281 50.632812 425.933594 27.980469 C 425.933594 27.980469 186.4375 15.035156 79.636719 189.796875 M 497.132812 668.773438 L 497.132812 778.808594 C 497.132812 778.808594 752.808594 733.5 801.355469 445.46875 L 688.082031 445.46875 C 684.84375 448.703125 668.664062 613.757812 497.132812 668.773438 " fill-opacity="1" fill-rule="nonzero"/><g clip-path="url(#56e27d1c07)"><path fill="#e20714" d="M 403.277344 445.46875 C 435.640625 445.46875 461.53125 422.8125 461.53125 390.449219 C 461.53125 358.085938 435.640625 335.429688 403.277344 335.429688 C 370.914062 335.429688 345.023438 361.320312 345.023438 390.449219 C 345.023438 419.578125 370.914062 445.46875 403.277344 445.46875 M 843.429688 710.847656 L 843.429688 749.683594 C 843.429688 749.683594 937.285156 743.210938 953.464844 662.300781 L 953.464844 451.941406 L 911.394531 451.941406 C 911.394531 451.941406 914.628906 620.230469 911.394531 652.59375 C 908.15625 652.59375 911.394531 694.664062 843.429688 710.847656 M 969.648438 743.210938 C 985.828125 607.285156 1031.140625 536.085938 1076.449219 497.25 L 1076.449219 568.449219 C 1063.503906 584.628906 1050.558594 604.046875 1044.085938 626.703125 L 1076.449219 626.703125 L 1076.449219 668.773438 L 1027.902344 668.773438 C 1014.957031 714.082031 1014.957031 739.972656 1014.957031 739.972656 L 969.648438 739.972656 Z M 1076.449219 497.25 C 1118.523438 461.648438 1157.359375 455.175781 1157.359375 455.175781 L 1157.359375 743.210938 L 1108.8125 743.210938 L 1108.8125 668.773438 L 1076.449219 668.773438 L 1076.449219 623.464844 L 1108.8125 623.464844 L 1108.8125 532.847656 C 1108.8125 532.847656 1092.632812 542.558594 1076.449219 565.210938 Z M 1186.488281 448.703125 L 1235.035156 448.703125 C 1244.742188 448.703125 1254.453125 451.941406 1260.925781 451.941406 L 1260.925781 497.25 C 1251.214844 494.011719 1241.507812 490.777344 1231.796875 490.777344 L 1231.796875 604.046875 C 1231.796875 604.046875 1247.980469 604.046875 1260.925781 597.574219 L 1260.925781 694.664062 C 1251.214844 684.957031 1241.507812 672.011719 1235.035156 655.828125 C 1231.796875 659.066406 1228.5625 655.828125 1228.5625 655.828125 L 1228.5625 736.738281 L 1186.488281 736.738281 Z M 1260.925781 451.941406 C 1328.890625 468.121094 1332.125 536.085938 1332.125 536.085938 C 1335.363281 607.285156 1273.871094 636.410156 1273.871094 636.410156 C 1290.050781 684.957031 1338.597656 697.902344 1338.597656 697.902344 L 1338.597656 736.738281 C 1306.234375 733.5 1277.105469 717.320312 1257.6875 691.429688 L 1257.6875 594.339844 C 1273.871094 587.867188 1290.050781 571.683594 1286.816406 539.320312 C 1286.816406 539.320312 1286.816406 510.195312 1257.6875 497.25 C 1260.925781 497.25 1260.925781 451.941406 1260.925781 451.941406 Z M 1413.035156 448.703125 L 1413.035156 743.210938 L 1367.726562 743.210938 L 1367.726562 448.703125 M 1448.636719 448.703125 L 1497.183594 448.703125 C 1506.890625 448.703125 1516.601562 451.941406 1523.074219 451.941406 L 1523.074219 497.25 C 1516.601562 494.011719 1506.890625 490.777344 1493.945312 490.777344 L 1493.945312 604.046875 C 1493.945312 604.046875 1510.128906 604.046875 1523.074219 597.574219 L 1523.074219 694.664062 C 1506.890625 675.246094 1497.183594 655.828125 1497.183594 655.828125 C 1493.945312 659.066406 1490.710938 655.828125 1490.710938 655.828125 L 1490.710938 736.738281 L 1448.636719 736.738281 Z M 1523.074219 451.941406 C 1591.039062 468.121094 1594.273438 536.085938 1594.273438 536.085938 C 1597.511719 607.285156 1536.019531 636.410156 1536.019531 636.410156 C 1552.199219 684.957031 1600.746094 697.902344 1600.746094 697.902344 L 1600.746094 739.972656 C 1561.910156 733.5 1536.019531 714.082031 1519.835938 694.664062 L 1519.835938 597.574219 C 1536.019531 591.101562 1552.199219 574.921875 1548.964844 539.320312 C 1548.964844 539.320312 1548.964844 510.195312 1519.835938 497.25 C 1523.074219 497.25 1523.074219 451.941406 1523.074219 451.941406 Z M 2303.046875 594.339844 C 2303.046875 532.847656 2354.828125 484.304688 2416.320312 484.304688 L 2416.320312 445.46875 C 2328.9375 445.46875 2260.972656 513.429688 2260.972656 597.574219 C 2260.972656 678.484375 2332.175781 746.445312 2416.320312 746.445312 L 2416.320312 704.375 C 2354.828125 704.375 2303.046875 655.828125 2303.046875 594.339844 Z M 2416.320312 484.304688 C 2481.050781 484.304688 2529.597656 532.847656 2529.597656 594.339844 C 2529.597656 655.828125 2477.8125 704.375 2416.320312 704.375 L 2416.320312 746.445312 C 2503.703125 746.445312 2574.90625 678.484375 2574.90625 597.574219 C 2574.90625 513.429688 2503.703125 445.46875 2416.320312 445.46875 Z M 1976.171875 594.339844 C 1976.171875 532.847656 2027.953125 484.304688 2092.679688 484.304688 L 2092.679688 445.46875 C 2005.296875 445.46875 1937.332031 513.429688 1937.332031 594.339844 C 1937.332031 675.246094 2008.535156 743.210938 2092.679688 743.210938 L 2092.679688 701.136719 C 2027.953125 704.375 1976.171875 652.59375 1976.171875 594.339844 Z M 2089.445312 484.304688 C 2154.171875 484.304688 2202.71875 532.847656 2202.71875 594.339844 C 2202.71875 655.828125 2150.9375 704.375 2089.445312 704.375 L 2089.445312 746.445312 C 2176.828125 746.445312 2248.027344 678.484375 2248.027344 597.574219 C 2248.027344 513.429688 2176.828125 448.703125 2089.445312 448.703125 Z M 2649.34375 642.882812 L 2649.34375 736.738281 L 2607.269531 736.738281 L 2607.269531 448.703125 L 2646.105469 448.703125 L 2646.105469 571.683594 C 2646.105469 571.683594 2714.070312 568.449219 2733.488281 451.941406 L 2772.324219 451.941406 C 2772.324219 451.941406 2785.273438 536.085938 2681.707031 607.285156 C 2681.707031 607.285156 2727.015625 697.902344 2778.796875 701.136719 L 2778.796875 739.972656 C 2778.796875 739.972656 2701.125 736.738281 2652.578125 642.882812 Z M 2817.636719 681.71875 L 2814.398438 723.792969 C 2814.398438 723.792969 2843.527344 746.445312 2879.128906 743.210938 C 2879.128906 743.210938 2960.039062 736.738281 2969.746094 655.828125 C 2969.746094 655.828125 2972.984375 610.519531 2934.148438 578.15625 C 2934.148438 578.15625 2892.074219 561.976562 2869.417969 545.792969 C 2869.417969 545.792969 2830.582031 513.429688 2888.835938 487.539062 C 2888.835938 487.539062 2917.964844 481.066406 2934.148438 497.25 L 2940.621094 455.175781 C 2940.621094 455.175781 2921.199219 429.285156 2866.183594 445.46875 C 2866.183594 445.46875 2817.636719 458.414062 2811.164062 510.195312 C 2811.164062 510.195312 2804.691406 542.558594 2837.054688 574.921875 C 2837.054688 574.921875 2859.710938 594.339844 2895.308594 607.285156 C 2895.308594 607.285156 2927.675781 613.757812 2921.203125 649.355469 C 2921.203125 649.355469 2917.964844 681.71875 2888.835938 691.429688 C 2885.601562 694.664062 2859.710938 704.375 2817.636719 681.71875 M 2972.984375 506.957031 C 2972.984375 506.957031 2998.875 487.539062 3028.003906 487.539062 L 3028.003906 736.738281 L 3076.546875 736.738281 L 3076.546875 487.539062 C 3076.546875 487.539062 3102.441406 484.304688 3134.804688 510.195312 L 3147.75 471.359375 C 3147.75 471.359375 3134.804688 445.46875 3050.65625 438.996094 C 3050.65625 438.996094 3002.109375 438.996094 2950.328125 468.121094 Z M 3474.625 733.5 L 3474.625 442.230469 C 3474.625 442.230469 3510.226562 435.757812 3549.0625 448.703125 L 3549.0625 494.011719 C 3542.589844 490.777344 3532.882812 487.539062 3519.9375 490.777344 L 3519.9375 604.046875 C 3519.9375 604.046875 3536.117188 600.8125 3549.0625 594.339844 L 3549.0625 697.902344 C 3539.355469 688.191406 3532.882812 675.246094 3523.171875 662.300781 L 3519.9375 662.300781 L 3519.9375 733.5 Z M 3545.828125 448.703125 C 3578.191406 458.414062 3613.792969 481.066406 3620.265625 536.085938 C 3620.265625 536.085938 3623.5 597.574219 3562.007812 633.175781 C 3562.007812 633.175781 3555.535156 662.300781 3626.738281 697.902344 L 3626.738281 736.738281 C 3626.738281 736.738281 3581.425781 733.5 3545.828125 694.664062 L 3545.828125 591.101562 C 3562.007812 581.394531 3574.953125 568.449219 3574.953125 539.320312 C 3574.953125 539.320312 3574.953125 503.722656 3545.828125 490.777344 Z M 3639.683594 578.15625 C 3639.683594 578.15625 3633.210938 736.738281 3804.738281 743.210938 L 3804.738281 701.136719 C 3804.738281 701.136719 3701.175781 701.136719 3688.230469 613.757812 L 3804.738281 613.757812 L 3804.738281 571.683594 L 3688.230469 571.683594 C 3688.230469 571.683594 3697.9375 484.304688 3804.738281 481.066406 L 3804.738281 442.230469 C 3804.738281 442.230469 3659.101562 435.757812 3639.683594 578.15625 M 3183.351562 591.101562 C 3183.351562 529.613281 3235.132812 481.066406 3296.625 481.066406 L 3296.625 442.230469 C 3209.242188 442.230469 3141.277344 510.195312 3141.277344 594.339844 C 3141.277344 675.246094 3212.476562 743.210938 3296.625 743.210938 L 3296.625 701.136719 C 3235.132812 701.136719 3183.351562 652.59375 3183.351562 591.101562 Z M 3296.625 481.066406 C 3361.351562 481.066406 3409.898438 529.613281 3409.898438 591.101562 C 3409.898438 652.59375 3358.117188 701.136719 3296.625 701.136719 L 3296.625 743.210938 C 3384.007812 743.210938 3451.972656 675.246094 3451.972656 594.339844 C 3451.972656 510.195312 3380.769531 442.230469 3296.625 442.230469 Z M 1846.714844 581.394531 C 1840.242188 587.867188 1833.769531 591.101562 1827.296875 594.339844 C 1833.769531 594.339844 1840.242188 597.574219 1846.714844 600.8125 Z M 1775.511719 455.175781 C 1775.511719 455.175781 1814.351562 451.941406 1846.714844 461.648438 L 1846.714844 506.957031 C 1840.242188 503.722656 1830.53125 500.484375 1820.824219 497.25 L 1820.824219 701.136719 C 1820.824219 701.136719 1833.769531 701.136719 1846.714844 694.664062 L 1846.714844 739.972656 C 1840.242188 739.972656 1833.769531 743.210938 1827.296875 743.210938 C 1827.296875 743.210938 1801.40625 746.445312 1775.511719 746.445312 Z M 1846.714844 461.648438 C 1869.367188 468.121094 1888.789062 484.304688 1898.496094 506.957031 C 1898.496094 506.957031 1914.679688 555.503906 1892.023438 587.867188 C 1892.023438 587.867188 1914.679688 600.8125 1914.679688 639.648438 L 1914.679688 649.355469 C 1914.679688 655.828125 1914.679688 665.539062 1911.441406 672.011719 C 1911.441406 672.011719 1901.734375 720.554688 1846.714844 733.5 L 1846.714844 688.191406 C 1862.894531 681.71875 1875.839844 665.539062 1872.605469 636.410156 C 1872.605469 636.410156 1869.367188 610.519531 1846.714844 597.574219 L 1846.714844 574.921875 C 1856.421875 565.210938 1866.132812 552.265625 1866.132812 536.085938 C 1866.132812 536.085938 1866.132812 513.429688 1846.714844 500.484375 Z M 872.554688 325.722656 C 872.554688 325.722656 885.5 380.738281 956.703125 374.265625 C 956.703125 374.265625 1014.957031 367.792969 1034.375 290.121094 L 1548.964844 290.121094 L 1548.964844 141.25 L 1490.710938 141.25 L 1490.710938 225.394531 L 1037.613281 225.394531 L 1037.613281 199.503906 L 979.355469 199.503906 L 979.355469 293.359375 C 976.121094 290.121094 976.121094 361.320312 872.554688 325.722656 " fill-opacity="1" fill-rule="nonzero"/></g></svg>