<svg xmlns="http://www.w3.org/2000/svg" xmlns:xlink="http://www.w3.org/1999/xlink" width="152" zoomAndPan="magnify" viewBox="0 0 114 38.249999" height="51" preserveAspectRatio="xMidYMid meet" version="1.0"><defs><clipPath id="67819ea3e7"><path d="M 1.097656 0 L 112.902344 0 L 112.902344 37.515625 L 1.097656 37.515625 Z M 1.097656 0 " clip-rule="nonzero"/></clipPath><clipPath id="17fe3fddce"><path d="M 0.933594 21 L 48.03125 21 L 48.03125 37.515625 L 0.933594 37.515625 Z M 0.933594 21 " clip-rule="nonzero"/></clipPath><clipPath id="77592e9721"><path d="M 0.933594 0 L 48.03125 0 L 48.03125 16 L 0.933594 16 Z M 0.933594 0 " clip-rule="nonzero"/></clipPath><clipPath id="46e82c6ec2"><path d="M 52.132812 0 L 110.824219 0 L 110.824219 37.515625 L 52.132812 37.515625 Z M 52.132812 0 " clip-rule="nonzero"/></clipPath><clipPath id="8a2956747a"><rect x="0" width="112" y="0" height="38"/></clipPath></defs><g clip-path="url(#67819ea3e7)"><g transform="matrix(1, 0, 0, 1, 1, 0)"><g clip-path="url(#8a2956747a)"><g clip-path="url(#17fe3fddce)"><path fill="#82bc00" d="M 0.574219 21.730469 L 48.078125 21.730469 L 48.078125 37.675781 L 0.574219 37.675781 Z M 0.574219 21.730469 " fill-opacity="1" fill-rule="nonzero"/></g><g clip-path="url(#77592e9721)"><path fill="#00a1df" d="M 0.574219 0 L 48.078125 0 L 48.078125 15.9375 L 0.574219 15.9375 Z M 0.574219 0 " fill-opacity="1" fill-rule="nonzero"/></g><g clip-path="url(#46e82c6ec2)"><path fill="#ffffff" d="M -1.070312 21.722656 L 46.441406 21.722656 L 46.441406 37.613281 L -1.070312 37.613281 Z M -1.070312 0.0664062 L 46.441406 0.0664062 L 46.441406 15.949219 L -1.070312 15.949219 Z M 93.945312 34.363281 L 93.738281 34.410156 C 93.234375 34.53125 92.71875 34.59375 92.199219 34.601562 C 90.960938 34.601562 89.496094 33.972656 89.496094 30.960938 C 89.496094 29.417969 89.761719 27.375 92.058594 27.375 C 92.636719 27.402344 93.203125 27.507812 93.753906 27.6875 L 93.933594 27.746094 Z M 94.332031 19.378906 L 93.945312 19.449219 L 93.945312 25.027344 L 93.621094 24.929688 L 93.523438 24.929688 C 92.839844 24.710938 92.140625 24.585938 91.421875 24.558594 C 86.792969 24.558594 85.8125 28.074219 85.8125 31.015625 C 85.8125 35.046875 88.035156 37.367188 92.007812 37.367188 C 93.421875 37.402344 94.804688 37.207031 96.15625 36.78125 C 97.296875 36.414062 97.710938 35.886719 97.710938 34.773438 L 97.710938 18.832031 C 96.597656 19.046875 95.488281 19.226562 94.339844 19.410156 M 107.671875 34.46875 L 107.480469 34.519531 L 106.738281 34.707031 C 106.183594 34.871094 105.617188 34.960938 105.035156 34.980469 C 103.949219 34.980469 103.296875 34.441406 103.296875 33.496094 C 103.296875 32.902344 103.5625 31.90625 105.339844 31.90625 L 107.636719 31.90625 Z M 106.058594 24.460938 C 104.453125 24.507812 102.894531 24.796875 101.378906 25.324219 L 100.191406 25.6875 L 100.585938 28.363281 L 101.738281 27.984375 C 102.992188 27.582031 104.273438 27.367188 105.585938 27.335938 C 106.101562 27.335938 107.660156 27.335938 107.660156 29.023438 L 107.660156 29.765625 L 105.496094 29.765625 C 101.570312 29.765625 99.738281 31.023438 99.738281 33.71875 C 99.738281 36.03125 101.414062 37.394531 104.242188 37.394531 C 105.304688 37.375 106.347656 37.234375 107.378906 36.972656 L 107.488281 36.972656 L 107.835938 37.03125 C 108.941406 37.234375 110.058594 37.425781 111.191406 37.65625 L 111.191406 28.769531 C 111.191406 25.910156 109.472656 24.460938 106.089844 24.460938 M 80.300781 34.46875 L 80.109375 34.519531 L 79.371094 34.707031 C 78.816406 34.871094 78.25 34.960938 77.671875 34.980469 C 76.582031 34.980469 75.933594 34.441406 75.933594 33.496094 C 75.933594 32.902344 76.199219 31.90625 77.976562 31.90625 L 80.273438 31.90625 Z M 78.6875 24.460938 C 77.074219 24.507812 75.503906 24.792969 73.976562 25.324219 L 72.792969 25.6875 L 73.191406 28.363281 L 74.339844 27.984375 C 75.59375 27.582031 76.875 27.367188 78.191406 27.335938 C 78.695312 27.335938 80.25 27.335938 80.25 29.023438 L 80.25 29.765625 L 78.09375 29.765625 C 74.167969 29.765625 72.332031 31.023438 72.332031 33.71875 C 72.332031 36.03125 74.011719 37.394531 76.835938 37.394531 C 77.898438 37.375 78.945312 37.234375 79.976562 36.972656 L 80.085938 36.972656 L 80.4375 37.03125 C 81.539062 37.234375 82.65625 37.425781 83.792969 37.65625 L 83.792969 28.769531 C 83.792969 25.902344 82.074219 24.460938 78.6875 24.460938 M 65.4375 24.460938 C 64.101562 24.480469 62.828125 24.765625 61.613281 25.324219 L 61.472656 25.390625 L 61.355469 25.324219 C 60.296875 24.679688 59.152344 24.402344 57.917969 24.492188 C 56.539062 24.492188 55.191406 24.691406 53.871094 25.09375 C 52.671875 25.464844 52.207031 26.039062 52.207031 27.121094 L 52.207031 37.210938 L 55.96875 37.210938 L 55.96875 27.894531 L 56.148438 27.835938 C 56.679688 27.644531 57.230469 27.542969 57.796875 27.539062 C 58.886719 27.539062 59.429688 28.109375 59.429688 29.246094 L 59.429688 37.210938 L 63.132812 37.210938 L 63.132812 29.082031 C 63.136719 28.8125 63.09375 28.550781 63 28.296875 L 62.878906 28.050781 L 63.132812 27.9375 C 63.714844 27.679688 64.324219 27.550781 64.960938 27.550781 C 65.160156 27.53125 65.351562 27.546875 65.542969 27.601562 C 65.734375 27.65625 65.90625 27.746094 66.0625 27.871094 C 66.214844 27.996094 66.339844 28.148438 66.433594 28.324219 C 66.53125 28.496094 66.585938 28.683594 66.605469 28.882812 C 66.621094 29.007812 66.621094 29.136719 66.605469 29.261719 L 66.605469 37.210938 L 70.308594 37.210938 L 70.308594 28.867188 C 70.308594 25.894531 68.722656 24.492188 65.449219 24.492188 M 104.953125 10.421875 C 104.207031 10.421875 103.46875 10.355469 102.734375 10.21875 L 102.523438 10.21875 L 102.523438 4.730469 C 102.527344 4.476562 102.492188 4.230469 102.421875 3.988281 L 102.304688 3.757812 L 102.539062 3.644531 C 102.601562 3.628906 102.660156 3.609375 102.71875 3.578125 L 102.761719 3.578125 L 103.007812 3.496094 L 103.117188 3.496094 C 103.753906 3.339844 104.398438 3.265625 105.050781 3.273438 C 107.347656 3.273438 107.613281 5.316406 107.613281 6.871094 C 107.613281 9.839844 106.132812 10.503906 104.910156 10.503906 M 104.933594 0.0664062 L 104.859375 0.0664062 C 102.703125 0.0664062 100.480469 0.652344 99.671875 1.820312 C 99.207031 2.445312 98.984375 3.148438 99 3.929688 L 99 9.539062 C 99.015625 9.78125 98.976562 10.011719 98.878906 10.234375 L 98.761719 10.488281 L 91.945312 10.488281 L 91.945312 6.585938 C 91.867188 2.472656 89.429688 0.214844 85.917969 0.214844 L 82.488281 0.214844 L 82.085938 2.925781 L 85.503906 2.925781 C 87.296875 2.925781 88.234375 4.464844 88.234375 6.8125 L 88.234375 10.734375 L 87.992188 10.613281 C 87.730469 10.523438 87.460938 10.488281 87.183594 10.503906 L 81.257812 10.503906 C 81.148438 11.246094 81.007812 12.21875 80.851562 13.199219 L 98.976562 13.199219 C 99.585938 13.089844 100.316406 12.976562 100.933594 12.867188 C 102.160156 13.335938 103.425781 13.5625 104.738281 13.550781 C 108.679688 13.550781 111.222656 10.910156 111.222656 6.863281 C 111.222656 2.8125 108.769531 0.152344 104.933594 0.0664062 M 73.148438 14.839844 L 73.308594 14.839844 C 77.242188 14.839844 79.074219 13.542969 79.074219 10.324219 C 79.074219 8.015625 77.390625 6.171875 74.570312 6.171875 L 70.9375 6.171875 C 70.734375 6.195312 70.535156 6.183594 70.335938 6.125 C 70.136719 6.070312 69.957031 5.980469 69.792969 5.851562 C 69.632812 5.722656 69.5 5.570312 69.402344 5.390625 C 69.300781 5.210938 69.238281 5.015625 69.214844 4.8125 C 69.207031 4.714844 69.207031 4.613281 69.214844 4.515625 C 69.214844 3.773438 69.480469 2.917969 71.25 2.917969 L 79.175781 2.917969 C 79.339844 1.878906 79.4375 1.238281 79.585938 0.214844 L 71.347656 0.214844 C 67.507812 0.214844 65.597656 1.820312 65.597656 4.523438 C 65.597656 7.226562 67.289062 8.5625 70.101562 8.5625 L 73.746094 8.5625 C 73.972656 8.558594 74.191406 8.601562 74.402344 8.683594 C 74.613281 8.765625 74.800781 8.886719 74.964844 9.046875 C 75.125 9.203125 75.25 9.386719 75.339844 9.597656 C 75.429688 9.804688 75.476562 10.023438 75.480469 10.25 L 75.480469 10.324219 C 75.480469 10.925781 75.214844 12.160156 73.441406 12.160156 L 59.074219 12.160156 C 57.289062 12.160156 56.027344 11.132812 56.027344 8.785156 L 56.027344 7.128906 C 56.027344 4.664062 57 3.132812 59.074219 3.132812 L 62.546875 3.132812 C 62.695312 2.085938 62.792969 1.433594 62.9375 0.421875 L 58.234375 0.421875 C 54.71875 0.421875 52.308594 2.792969 52.207031 6.90625 L 52.207031 8.75 C 52.292969 12.867188 54.71875 14.828125 58.234375 14.828125 L 67.960938 14.828125 Z M 73.148438 14.839844 " fill-opacity="1" fill-rule="nonzero"/></g></g></g></g></svg>