<svg xmlns="http://www.w3.org/2000/svg" xmlns:xlink="http://www.w3.org/1999/xlink" width="1080" zoomAndPan="magnify" viewBox="0 0 810 809.999993" height="1080" preserveAspectRatio="xMidYMid meet" version="1.0"><path fill="#404553" d="M 0.839844 424.195312 C 0.839844 641.328125 185.40625 810 399.949219 810 C 624.5625 810 806.613281 628.820312 806.613281 407.519531 C 806.613281 278.101562 743.988281 164.5 651.3125 88.582031 L 583.652344 205.492188 C 639.589844 253.085938 677.984375 326.566406 677.984375 409.246094 C 677.984375 559.511719 553.597656 683.101562 399.949219 683.101562 C 247.164062 683.101562 122.703125 559.511719 122.703125 405.078125 C 122.703125 386.671875 124.355469 368.339844 127.738281 350.796875 Z M 525.199219 20.0625 C 486.804688 5.820312 452.582031 0 418.359375 0 C 392.476562 0 369.898438 3.304688 353.21875 6.6875 L 266.363281 156.949219 C 298.070312 138.617188 338.976562 128.550781 383.269531 128.550781 C 409.15625 128.550781 432.519531 131.851562 456.75 138.539062 Z M 525.199219 20.0625 " fill-opacity="1" fill-rule="nonzero"/></svg>